<mxfile host="app.diagrams.net" modified="2023-12-19T04:11:12.944Z" agent="Mozilla/5.0 (Windows NT 10.0; Win64; x64) AppleWebKit/537.36 (KHTML, like Gecko) Chrome/120.0.0.0 Safari/537.36" version="22.1.11" etag="Hb2FqNRFMW4TCiNGTyRp" type="github">
  <diagram name="Page-1" id="xBekOBYAkc2fZ3J3WRr2">
    <mxGraphModel>
      <root>
        <mxCell id="0" />
        <mxCell id="1" parent="0" />
      </root>
    </mxGraphModel>
  </diagram>
</mxfile>
